<svg xmlns="http://www.w3.org/2000/svg" width="474" height="488" viewBox="0 0 474 488" fill="none"><g opacity="0.2"><path opacity="0.0909" d="M332.72 365.619L318.08 357.458C317.488 357.11 290.036 342.145 289.514 342.441L280.079 337.813C275.832 335.359 269.565 334.541 264.169 334.541C259.469 334.541 254.438 336.003 251.061 337.952L185.051 375.538L170.968 383.56L90.8758 429.167C88.282 430.664 85.8972 432.961 84.6613 435.223C83.6864 437.015 83.0772 438.947 83.0249 441C82.8683 446.29 86.1235 451.301 91.9899 454.695L106.63 462.856C107.222 463.204 134.673 478.168 135.196 477.873L144.631 482.501C148.878 484.955 155.145 485.773 160.541 485.773C165.241 485.773 170.272 484.311 173.649 482.362L239.659 444.776L253.742 436.754L333.834 391.146C336.41 389.65 338.813 387.353 340.048 385.091C341.023 383.299 341.633 381.367 341.685 379.314C341.841 374.006 338.586 368.995 332.72 365.619Z" fill="black"></path><path opacity="0.1818" d="M331.257 366.768L317.018 358.902C315.834 358.206 290.123 344.703 289.096 345.295L279.94 341.519C276.11 339.309 269.46 339.17 264.586 339.17C260.356 339.17 254.995 340.98 251.948 342.72L187.871 379.244L174.206 387.04L96.4634 431.343C94.1308 432.682 91.4849 435.084 90.3186 437.102C89.3263 438.825 88.6474 440.652 88.5256 442.601C88.2122 447.682 91.3108 452.572 97.0553 455.895L111.295 463.761C112.478 464.457 138.19 477.96 139.217 477.368L148.373 481.144C152.203 483.354 158.852 483.493 163.727 483.493C167.957 483.493 173.336 481.683 176.364 479.926L240.442 443.401L254.107 435.606L331.849 391.303C334.182 389.963 336.828 387.562 337.994 385.543C338.986 383.821 339.665 381.994 339.787 380.045C340.101 374.998 337.019 370.091 331.257 366.768Z" fill="black"></path><path opacity="0.2727" d="M329.796 367.934L315.957 360.364C314.164 359.338 290.228 347.279 288.679 348.166L279.801 345.243C276.389 343.276 269.339 343.816 265.022 343.816C261.262 343.816 255.552 345.956 252.854 347.522L190.726 382.968L177.479 390.52L102.087 433.535C100.015 434.736 97.108 437.241 96.0288 438.999C95.0191 440.652 94.2706 442.357 94.0791 444.219C93.6265 449.092 96.5336 453.859 102.191 457.131L116.03 464.7C117.823 465.727 141.759 477.786 143.308 476.898L152.186 479.839C155.598 481.805 162.648 481.283 166.965 481.283C170.725 481.283 176.435 479.143 179.133 477.577L241.261 442.131L254.508 434.579L329.9 391.564C331.972 390.363 334.879 387.858 335.958 386.1C336.968 384.447 337.716 382.742 337.89 380.88C338.378 375.973 335.453 371.205 329.796 367.934Z" fill="black"></path><path opacity="0.3636" d="M328.351 369.099L314.895 361.826C312.51 360.451 290.315 349.854 288.261 351.037L279.662 348.949C276.685 347.226 269.235 348.427 265.44 348.427C262.15 348.427 256.109 350.915 253.742 352.273L193.546 386.657L180.717 393.983L107.692 435.693C105.881 436.737 102.696 439.347 101.721 440.861C100.694 442.462 99.8584 444.045 99.6321 445.803C99.0228 450.449 101.773 455.112 107.326 458.314L120.765 465.605C123.15 466.98 145.345 477.577 147.399 476.394L155.998 478.482C158.975 480.204 166.425 479.004 170.22 479.004C173.51 479.004 179.551 476.515 181.918 475.158L242.114 440.774L254.943 433.448L327.968 391.738C329.778 390.694 332.964 388.084 333.939 386.57C334.966 384.969 335.801 383.403 336.028 381.628C336.654 376.965 333.904 372.301 328.351 369.099Z" fill="black"></path><path opacity="0.4545" d="M326.888 370.248L313.832 363.27C310.856 361.547 290.419 352.395 287.825 353.891L279.522 352.656C276.963 351.176 269.13 353.056 265.874 353.056C263.054 353.056 256.683 355.875 254.646 357.041L196.383 390.363L183.954 397.463L113.279 437.885C111.73 438.773 108.266 441.487 107.395 442.758C106.351 444.289 105.446 445.751 105.15 447.421C104.384 451.858 106.978 456.4 112.426 459.549L125.482 466.527C128.459 468.25 148.895 477.386 151.489 475.906L159.81 477.142C162.369 478.621 170.202 476.742 173.457 476.742C176.277 476.742 182.649 473.923 184.685 472.757L242.949 439.434L255.378 432.334L326.053 391.912C327.602 391.025 331.083 388.31 331.936 387.04C332.981 385.509 333.886 384.047 334.182 382.376C334.93 377.939 332.337 373.397 326.888 370.248Z" fill="black"></path><path opacity="0.5455" d="M325.426 371.414L312.771 364.714C309.202 362.644 290.506 354.952 287.408 356.745L279.383 356.345C277.259 355.126 269.008 357.667 266.31 357.667C263.96 357.667 257.241 360.817 255.552 361.791L199.238 394.035L187.227 400.908L118.902 440.026C117.614 440.774 113.854 443.558 113.088 444.602C112.026 446.081 111.034 447.404 110.686 448.987C109.763 453.216 112.183 457.635 117.544 460.715L130.2 467.415C133.768 469.485 152.464 477.177 155.563 475.384L163.587 475.785C165.711 477.02 173.962 474.462 176.661 474.462C179.011 474.462 185.73 471.313 187.419 470.338L243.732 438.094L255.743 431.221L324.068 392.103C325.357 391.355 329.117 388.571 329.883 387.51C330.944 386.031 331.937 384.708 332.285 383.125C333.207 378.931 330.77 374.494 325.426 371.414Z" fill="black"></path><path opacity="0.6364" d="M323.964 372.58L311.692 366.176C307.514 363.775 290.594 357.528 286.973 359.616L279.226 360.068C277.52 359.094 268.886 362.313 266.71 362.313C264.83 362.313 257.78 365.811 256.422 366.594L202.041 397.776L190.447 404.423L124.473 442.253C123.446 442.845 119.372 445.716 118.745 446.551C117.666 447.978 116.604 449.179 116.204 450.658C115.107 454.66 117.388 458.975 122.627 462.003L134.9 468.407C139.078 470.808 155.998 477.055 159.619 474.967L167.365 474.514C169.071 475.489 177.705 472.27 179.881 472.27C181.761 472.27 188.811 468.772 190.169 467.989L244.55 436.806L256.144 430.159L322.119 392.33C323.146 391.738 327.219 388.867 327.846 388.032C328.925 386.605 329.987 385.404 330.387 383.925C331.484 379.905 329.204 375.607 323.964 372.58Z" fill="black"></path><path opacity="0.7273" d="M322.502 373.728L310.63 367.62C305.86 364.871 290.681 360.086 286.555 362.47L279.087 363.757C277.816 363.027 268.764 366.907 267.145 366.907C265.735 366.907 258.355 370.735 257.328 371.327L204.896 401.43L193.72 407.851L130.095 444.376C129.312 444.828 124.821 447.682 124.455 448.378C123.115 449.509 122.21 450.814 121.757 452.206C120.504 456 122.627 460.193 127.763 463.169L139.635 469.277C144.404 472.026 159.584 476.811 163.709 474.427L171.177 473.14C172.448 473.87 181.5 469.99 183.119 469.99C184.529 469.99 191.91 466.162 192.919 465.57L245.351 435.467L256.527 429.046L320.169 392.521C320.952 392.069 325.461 389.215 325.809 388.519C327.15 387.388 328.055 386.083 328.507 384.691C329.761 380.897 327.654 376.704 322.502 373.728Z" fill="black"></path><path opacity="0.8182" d="M321.039 374.894L309.568 369.082C304.206 365.985 290.785 362.661 286.137 365.341L278.948 367.481C278.095 366.994 268.66 371.553 267.581 371.553C266.641 371.553 258.912 375.729 258.233 376.112L207.733 405.154L196.975 411.349L135.718 446.586C135.196 446.882 130.391 449.822 130.165 450.292C128.772 451.336 127.832 452.554 127.31 453.842C125.9 457.427 127.85 461.498 132.898 464.404L144.37 470.216C149.731 473.314 163.152 476.637 167.8 473.957L174.99 471.817C175.842 472.304 185.277 467.745 186.357 467.745C187.297 467.745 195.026 463.569 195.687 463.186L246.187 434.144L256.945 427.949L318.202 392.713C318.724 392.417 323.529 389.476 323.755 389.006C325.148 387.962 326.088 386.744 326.61 385.456C328.037 381.889 326.088 377.8 321.039 374.894Z" fill="black"></path><path opacity="0.9091" d="M319.578 376.06L308.489 370.544C302.536 367.098 290.855 365.236 285.702 368.212L278.792 371.188C278.374 370.944 268.521 376.182 267.981 376.182C267.511 376.182 259.452 380.688 259.121 380.88L210.554 408.861L200.214 414.829L141.306 448.761C141.045 448.918 135.945 451.945 135.823 452.171C134.378 453.129 133.386 454.242 132.811 455.443C131.227 458.801 133.038 462.769 137.981 465.622L149.07 471.138C155.023 474.584 166.704 476.446 171.857 473.47L178.767 470.495C179.185 470.738 189.038 465.501 189.577 465.501C190.047 465.501 198.107 460.994 198.438 460.802L247.005 432.822L257.363 426.853L316.27 392.921C316.531 392.765 321.632 389.737 321.754 389.511C323.198 388.554 324.191 387.44 324.748 386.239C326.332 382.864 324.521 378.914 319.578 376.06Z" fill="black"></path><path opacity="0.2" d="M175.93 472.983L247.823 431.499L319.717 390.015C325.392 386.744 324.678 381.019 318.133 377.226L307.444 372.005C300.882 368.229 290.977 367.812 285.302 371.083L213.426 412.567L141.55 454.051C135.875 457.322 136.589 463.047 143.134 466.84L153.822 472.061C160.333 475.837 170.255 476.254 175.93 472.983Z" fill="black"></path></g><path d="M171.194 463.204L287.686 390.746C300.829 382.568 305.546 361.286 298.218 343.207L168.531 22.9774C164.806 13.7723 173.074 11.5624 166.233 8.36061C165.972 8.2388 151.332 3.71456 151.054 3.64496C144.369 1.88746 137.685 1.17402 131.47 5.03703L14.9783 77.4771C1.83558 85.6556 -2.88188 106.937 4.44673 125.016L134.134 445.246C138.033 454.851 144.526 461.62 151.75 464.631C152.185 464.805 169.924 470.547 170.359 470.634C176.225 472.009 165.45 466.771 171.194 463.204Z" fill="url(#paint0_linear)"></path><path d="M16.4579 77.8251L132.967 5.36765C139.164 1.50465 25.3532 79.8785 25.3532 79.8785C12.2105 88.0569 7.49299 109.338 14.8216 127.418C14.8216 127.418 139.495 455.199 135.613 445.594L5.92631 125.365C-1.3849 107.285 3.31516 86.0036 16.4579 77.8251Z" fill="url(#paint1_radial)"></path><path opacity="0.6" d="M184.146 467.241L300.638 394.783C313.78 386.605 318.498 365.323 311.169 347.244L181.482 27.0144C174.171 8.91745 157.582 0.87822 144.439 9.05666L27.9471 81.5142C14.8043 89.6926 10.0869 110.974 17.4155 129.071L147.102 449.3C154.413 467.38 171.003 475.402 184.146 467.241Z" fill="url(#paint2_radial)"></path><path d="M187.192 468.337L303.684 395.879C316.827 387.701 321.544 366.42 314.216 348.34L184.529 28.1107C177.218 10.0137 160.628 1.99187 147.485 10.1529L30.9935 82.6278C17.8507 90.8063 13.1333 112.088 20.4619 130.167L150.149 450.397C157.46 468.476 174.049 476.515 187.192 468.337Z" fill="url(#paint3_linear)"></path><path d="M311.064 350.55L181.221 29.9204C174.797 14.0681 160.245 7.03813 148.738 14.1899L32.8557 86.2646C21.3318 93.4338 17.2062 112.088 23.6297 127.94L153.473 448.552C159.897 464.404 174.432 471.452 185.956 464.283L301.838 392.208C313.345 385.056 317.47 366.402 311.064 350.55Z" fill="url(#paint4_linear)"></path><path d="M306.104 352.621L176.904 33.6268C171.525 20.3499 159.358 14.4683 149.714 20.4543L36.303 90.9977C26.6592 97.001 23.1951 112.61 28.574 125.887L157.756 444.88C163.135 458.157 175.303 464.039 184.947 458.053L298.357 387.51C308.001 381.506 311.465 365.88 306.104 352.621Z" fill="url(#paint5_linear)"></path><path d="M52.196 84.5419C54.8942 91.2065 61.6484 93.7818 67.2884 90.2842L130.757 50.8189C136.397 47.3213 138.764 39.0733 136.066 32.3913L149.522 24.0215C158.609 18.3662 169.506 22.5076 173.875 33.2788L304.52 355.857C308.871 366.629 305.042 379.923 295.955 385.578L185.173 454.486C176.086 460.141 165.189 456 160.82 445.229L30.1754 122.65C25.8235 111.879 29.6531 98.5845 38.7399 92.9292L52.196 84.5419Z" fill="url(#paint6_linear)"></path><path d="M46.5732 204.347L37.8172 182.735C36.7031 179.969 33.3783 176.802 30.4016 175.653C27.4249 174.505 25.9104 175.827 27.0419 178.594L35.7979 200.206C36.912 202.973 40.2369 206.14 43.2136 207.288C46.1903 208.419 47.7047 207.097 46.5732 204.347Z" fill="url(#paint7_linear)"></path><path d="M44.8675 206.87C46.1557 206.836 46.0686 205.496 45.616 204.365L36.86 182.753C35.8677 180.299 32.8214 177.376 30.2103 176.367C29.6532 176.158 29.1484 176.053 28.7654 176.053C27.4773 176.088 27.5643 177.428 28.0169 178.559L36.7729 200.171C37.7652 202.625 40.8115 205.548 43.4227 206.557C43.9797 206.766 44.4671 206.888 44.8675 206.87Z" fill="url(#paint8_linear)"></path><path d="M44.5015 204.939L35.7455 183.327C34.7533 180.873 31.7069 177.95 29.0958 176.941C28.6084 176.749 28.1732 176.662 27.8076 176.645C27.9469 176.297 28.2254 176.053 28.765 176.036C29.148 176.036 29.6528 176.14 30.2099 176.349C32.821 177.358 35.8499 180.282 36.8596 182.735L45.6156 204.347C46.0856 205.496 46.1553 206.836 44.8671 206.853C44.8149 206.853 44.7626 206.836 44.7104 206.836C44.9019 206.348 44.7626 205.618 44.5015 204.939Z" fill="url(#paint9_radial)"></path><path d="M30.1754 122.65L160.82 445.229C165.171 456 176.086 460.141 185.173 454.486L295.955 385.578C305.042 379.923 308.871 366.611 304.52 355.857L173.858 33.2613C169.506 22.4902 158.591 18.3487 149.505 24.004L136.049 32.3739C138.747 39.0384 136.379 47.2865 130.739 50.8015L67.2884 90.2842C61.6484 93.7818 54.8942 91.2239 52.196 84.5419L38.7399 92.9118C29.6531 98.5671 25.8235 111.879 30.1754 122.65ZM31.951 122.615C27.7905 112.331 31.4635 99.5937 40.1499 94.182L51.6738 87.0128C54.1805 90.9977 58.3235 93.4164 62.7973 93.3294C64.8862 93.2772 66.8706 92.6855 68.6984 91.5545L132.167 52.0891C138.05 48.435 140.575 40.2913 138.172 33.2439L150.949 25.3091C153.299 23.8474 155.858 23.047 158.365 22.9948C164.214 22.873 169.489 26.8404 172.117 33.3309L302.761 355.91C306.922 366.193 303.249 378.931 294.562 384.343L183.78 453.25C181.43 454.712 178.871 455.513 176.365 455.565C173.597 455.617 170.899 454.764 168.566 453.111C166.024 451.301 163.97 448.57 162.613 445.229L31.951 122.615Z" fill="#BCBEC0"></path><path d="M270.07 341.78L431.56 248.789C440.369 243.708 447.506 230.066 447.506 218.32V182.492C447.506 176.541 453.32 176.419 450.361 174.261C450.117 174.087 442.214 169.719 441.953 169.58C439.167 167.979 435.529 168.153 431.56 170.45L270.07 263.441C261.262 268.522 254.125 282.164 254.125 293.893V329.721C254.125 336.142 256.266 340.666 259.643 342.615C259.747 342.685 267.789 347.244 267.911 347.296C270.644 348.723 266.24 343.99 270.07 341.78Z" fill="url(#paint10_linear)"></path><path d="M278.06 346.304L439.533 253.314C448.341 248.233 455.478 234.59 455.478 222.862V187.033C455.478 175.288 448.341 169.894 439.533 174.975L278.043 267.965C269.234 273.046 262.097 286.689 262.097 298.417V334.245C262.097 346.008 269.252 351.403 278.06 346.304Z" fill="url(#paint11_linear)"></path><path d="M385.308 225.664V229.509L282.481 288.342V284.479L385.308 225.664Z" fill="white"></path><path d="M344.191 281.033L385.308 257.699V261.562L344.191 284.896V281.033Z" fill="white"></path><path d="M321.509 278.11L385.308 241.69V245.535L321.509 281.956V278.11Z" fill="white"></path><path d="M359.336 264.276L385.308 249.694V253.557L359.336 268.139V264.276Z" fill="white"></path><path d="M355.541 266.469V270.332L303.022 300.505V296.659L355.541 266.469Z" fill="white"></path><path d="M340.379 283.226V287.089L310.925 304.09V300.227L340.379 283.226Z" fill="white"></path><path d="M317.714 284.148L282.481 304.35V300.505L317.714 280.302V284.148Z" fill="white"></path><path d="M299.228 302.697L282.481 312.372V308.509L299.228 298.852V302.697Z" fill="white"></path><path d="M385.308 237.531L282.481 296.346V292.5L385.308 233.668V237.531Z" fill="white"></path><path d="M307.131 306.282L282.481 320.377V316.531L307.131 302.419V306.282Z" fill="white"></path><path d="M385.308 269.566L282.481 328.399V324.536L385.308 265.72V269.566Z" fill="white"></path><path d="M403.621 243.621C406.145 241.481 408.408 238.749 410.201 235.739C411.281 233.912 411.246 231.945 410.184 231.319C408.809 230.518 407.608 229.248 406.824 227.578C405.675 227.891 404.231 227.473 404.231 225.89C404.231 224.271 404.944 222.514 405.902 221.626C406.18 214.718 408.548 207.619 416.486 203.042C424.441 198.448 426.791 202.833 427.069 209.411C428.027 209.202 428.74 210.124 428.74 211.743C428.74 213.326 427.313 215.397 426.164 216.424C425.381 219.016 424.18 221.679 422.804 224.045C421.743 225.89 421.708 227.908 422.804 228.465C424.597 229.405 426.878 229.509 429.385 228.743C432.727 227.734 435.199 229.753 435.199 233.859V240.976C435.199 242.351 434.224 244.039 433.023 244.735L399.983 263.806C398.782 264.502 397.807 263.946 397.807 262.571V255.454C397.807 251.347 400.279 246.458 403.621 243.621Z" fill="white"></path><path d="M127.397 173.617L287.53 81.2531C296.338 76.1721 303.475 62.5297 303.475 50.8015V14.973C303.475 9.02184 309.289 8.90003 306.33 6.74232C306.086 6.56831 298.183 2.20067 297.922 2.04406C295.137 0.460579 291.499 0.617187 287.53 2.91411L127.397 95.2783C118.589 100.359 111.452 114.002 111.452 125.73V161.558C111.452 167.979 113.593 172.504 116.97 174.453C117.074 174.522 125.117 179.081 125.221 179.151C127.971 180.578 123.567 175.845 127.397 173.617Z" fill="url(#paint12_linear)"></path><path d="M135.387 178.159L295.52 85.7948C304.328 80.7137 311.465 67.0714 311.465 55.3431V19.4972C311.465 7.75157 304.328 2.35728 295.52 7.43835L135.387 99.8199C126.579 104.901 119.441 118.543 119.441 130.272V166.1C119.424 177.846 126.579 183.24 135.387 178.159Z" fill="url(#paint13_linear)"></path><path d="M241.278 58.1273V61.9729L139.809 120.179V116.316L241.278 58.1273Z" fill="white"></path><path d="M200.161 113.497L241.277 90.1624V94.0254L200.161 117.36V113.497Z" fill="white"></path><path d="M177.479 110.574L241.278 74.1535V77.9991L177.479 114.419V110.574Z" fill="white"></path><path d="M215.306 96.74L241.278 82.158V86.021L215.306 100.603V96.74Z" fill="white"></path><path d="M211.511 98.9325V102.795L160.35 132.36V128.497L211.511 98.9325Z" fill="white"></path><path d="M196.366 115.69V119.553L166.895 136.553V132.69L196.366 115.69Z" fill="white"></path><path d="M173.684 116.612L139.809 136.205V132.342L173.684 112.766V116.612Z" fill="white"></path><path d="M156.555 134.535L139.809 144.21V140.364L156.555 130.689V134.535Z" fill="white"></path><path d="M241.278 69.9947L139.809 128.183V124.338L241.278 66.1317V69.9947Z" fill="white"></path><path d="M163.1 138.746L139.809 152.232V148.369L163.1 134.883V138.746Z" fill="white"></path><path d="M241.278 102.03L139.809 160.236V156.373L241.278 98.1842V102.03Z" fill="white"></path><path d="M259.591 76.085C262.115 73.9447 264.378 71.2128 266.171 68.2024C267.25 66.3753 267.215 64.409 266.153 63.7826C264.778 62.9821 263.577 61.7119 262.794 60.0414C261.645 60.3546 260.2 59.937 260.2 58.3535C260.2 56.7352 260.914 54.9777 261.871 54.0903C262.15 47.1821 264.517 40.0825 272.455 35.5061C280.393 30.9122 282.76 35.2972 283.039 41.8748C283.996 41.666 284.71 42.6056 284.71 44.2065C284.71 45.79 283.282 47.8607 282.116 48.87C281.333 51.4627 280.114 54.1251 278.756 56.4916C277.695 58.3361 277.66 60.3546 278.739 60.9114C280.532 61.8511 282.812 61.9555 285.319 61.1898C288.661 60.1806 291.133 62.1991 291.133 66.3057V73.4227C291.133 74.7974 290.158 76.4853 288.957 77.1813L255.918 96.2527C254.717 96.9488 253.742 96.3919 253.742 95.0173V87.9003C253.777 83.8111 256.266 78.9214 259.591 76.085Z" fill="white"></path><path d="M247.318 241.046L274.352 179.795V145.915C274.352 135.805 281.489 123.503 290.297 118.422L450.413 25.8311C454.817 23.2906 458.803 23.0296 461.693 24.6827C461.954 24.8393 469.665 29.1547 469.909 29.3287C472.346 31.1384 466.358 30.3206 466.358 34.9144V76.6593C466.358 86.7692 459.221 99.0717 450.413 104.153L295.258 193.872L254.96 245.414L247.318 241.046Z" fill="url(#paint14_linear)"></path><path d="M254.96 245.431L281.994 184.18V150.3C281.994 140.19 289.131 127.888 297.939 122.807L458.055 30.2162C466.863 25.1351 474 29.2069 474 39.2995V81.0443C474 91.1543 466.863 103.457 458.055 108.538L302.901 198.274L254.96 245.431Z" fill="url(#paint15_linear)"></path><path d="M409.401 76.259V80.122L303.632 140.66V136.797L409.401 76.259Z" fill="white"></path><path d="M365.168 133.334L409.401 108.312V112.175L365.168 137.18V133.334Z" fill="white"></path><path d="M342.485 130.393L409.4 92.2853V96.1483L342.485 134.256V130.393Z" fill="white"></path><path d="M380.33 116.577L409.4 100.307V104.153L380.33 120.423V116.577Z" fill="white"></path><path d="M376.535 118.77V122.615L324.19 152.823V148.978L376.535 118.77Z" fill="white"></path><path d="M361.373 135.527V139.372L331.919 156.373V152.527L361.373 135.527Z" fill="white"></path><path d="M338.691 136.449L303.632 156.686V152.823L338.691 132.586V136.449Z" fill="white"></path><path d="M320.395 155.016L303.632 164.691V160.828L320.395 151.17V155.016Z" fill="white"></path><path d="M409.401 88.1265L303.632 148.664V144.819L409.401 84.2809V88.1265Z" fill="white"></path><path d="M328.124 158.565L303.632 172.695V168.849L328.124 154.72V158.565Z" fill="white"></path><path d="M409.401 120.179L303.632 180.717V176.854L409.401 116.316V120.179Z" fill="white"></path><path d="M426.703 93.8688C429.227 91.7285 431.49 88.9965 433.283 85.9862C434.363 84.1591 434.328 82.1928 433.266 81.5663C431.891 80.7659 430.69 79.4956 429.906 77.8251C428.757 78.1384 427.313 77.7207 427.313 76.1372C427.313 74.519 428.026 72.7615 428.984 71.874C429.262 64.9658 431.63 57.8663 439.568 53.2898C447.523 48.696 449.873 53.081 450.151 59.6586C451.109 59.4497 451.823 60.372 451.823 61.9903C451.823 63.5738 450.395 65.6445 449.246 66.6711C448.463 69.2639 447.262 71.9262 445.887 74.2927C444.825 76.1372 444.79 78.1558 445.887 78.7126C447.679 79.6522 449.96 79.7566 452.467 78.991C455.809 77.9817 458.281 80.0003 458.281 84.1069V91.2239C458.281 92.5985 457.306 94.2864 456.105 94.9825L423.065 114.054C421.864 114.75 420.889 114.193 420.889 112.818V105.701C420.889 101.595 423.361 96.7226 426.703 93.8688Z" fill="white"></path><defs><linearGradient id="paint0_linear" x1="213.688" y1="15.5361" x2="111.116" y2="282.38" gradientUnits="userSpaceOnUse"><stop offset="0.0556" stop-color="#200041"></stop><stop offset="0.2576" stop-color="#210243"></stop><stop offset="0.3572" stop-color="#25084B"></stop><stop offset="0.4341" stop-color="#2C1358"></stop><stop offset="0.4697" stop-color="#311B61"></stop><stop offset="0.482" stop-color="#351F65"></stop><stop offset="0.4954" stop-color="#422C73"></stop><stop offset="0.5093" stop-color="#584188"></stop><stop offset="0.5235" stop-color="#765FA7"></stop><stop offset="0.5303" stop-color="#8770B8"></stop><stop offset="0.5366" stop-color="#7E67AE"></stop><stop offset="0.5617" stop-color="#5C468D"></stop><stop offset="0.5857" stop-color="#442E75"></stop><stop offset="0.6078" stop-color="#362066"></stop><stop offset="0.6263" stop-color="#311B61"></stop><stop offset="0.6724" stop-color="#2A1155"></stop><stop offset="0.7491" stop-color="#230446"></stop><stop offset="0.8131" stop-color="#200041"></stop><stop offset="1" stop-color="#200041"></stop></linearGradient><radialGradient id="paint1_radial" cx="0" cy="0" r="1" gradientUnits="userSpaceOnUse" gradientTransform="translate(-35.111 132.218) rotate(178.799) scale(354.556 297.192)"><stop stop-color="#711F56"></stop><stop offset="0.1614" stop-color="#6C1E52"></stop><stop offset="0.3626" stop-color="#5C1946"></stop><stop offset="0.5849" stop-color="#431233"></stop><stop offset="0.8208" stop-color="#200918"></stop><stop offset="1"></stop></radialGradient><radialGradient id="paint2_radial" cx="0" cy="0" r="1" gradientUnits="userSpaceOnUse" gradientTransform="translate(15.6661 109.914) rotate(178.799) scale(208.884 175.088)"><stop stop-color="#AF8AFC"></stop><stop offset="1" stop-color="#10054D"></stop></radialGradient><linearGradient id="paint3_linear" x1="64.1971" y1="271.677" x2="461.857" y2="-41.5214" gradientUnits="userSpaceOnUse"><stop offset="0.1869" stop-color="#3D065F"></stop><stop offset="0.9343" stop-color="#3D065F"></stop></linearGradient><linearGradient id="paint4_linear" x1="131.896" y1="457.623" x2="291.643" y2="-39.4879" gradientUnits="userSpaceOnUse"><stop stop-color="#311B61"></stop><stop offset="0.2031" stop-color="#290F52"></stop><stop offset="0.4949" stop-color="#200041"></stop><stop offset="1" stop-color="#0F001F"></stop></linearGradient><linearGradient id="paint5_linear" x1="259.409" y1="237.317" x2="99.8643" y2="301.919" gradientUnits="userSpaceOnUse"><stop stop-color="#311B61"></stop><stop offset="0.2031" stop-color="#290F52"></stop><stop offset="0.4949" stop-color="#200041"></stop><stop offset="1" stop-color="#0F001F"></stop></linearGradient><linearGradient id="paint6_linear" x1="207.744" y1="57.9289" x2="55.4441" y2="489.601" gradientUnits="userSpaceOnUse"><stop offset="0.0101" stop-color="#9F19AB"></stop><stop offset="0.4293" stop-color="#5F27BD"></stop><stop offset="0.904" stop-color="#3D065F"></stop></linearGradient><linearGradient id="paint7_linear" x1="20.5697" y1="171.865" x2="11.6275" y2="195.134" gradientUnits="userSpaceOnUse"><stop stop-color="#311B61"></stop><stop offset="0.2031" stop-color="#290F52"></stop><stop offset="0.4949" stop-color="#200041"></stop><stop offset="1" stop-color="#0F001F"></stop></linearGradient><linearGradient id="paint8_linear" x1="28.4572" y1="191.939" x2="47.4547" y2="183.255" gradientUnits="userSpaceOnUse"><stop stop-color="#3D065F"></stop><stop offset="1" stop-color="#5F27BD"></stop></linearGradient><radialGradient id="paint9_radial" cx="0" cy="0" r="1" gradientUnits="userSpaceOnUse" gradientTransform="translate(36.6126 183.64) rotate(178.799) scale(13.3441 11.1852)"><stop stop-color="#711F56"></stop><stop offset="0.1614" stop-color="#6C1E52"></stop><stop offset="0.3626" stop-color="#5C1946"></stop><stop offset="0.5849" stop-color="#431233"></stop><stop offset="0.8208" stop-color="#200918"></stop><stop offset="1"></stop></radialGradient><linearGradient id="paint10_linear" x1="429.875" y1="159.265" x2="275.023" y2="349.108" gradientUnits="userSpaceOnUse"><stop offset="0.3384" stop-color="#FBCD9C"></stop><stop offset="0.8081" stop-color="#FEECA8"></stop><stop offset="0.9141" stop-color="#FFA98C"></stop></linearGradient><linearGradient id="paint11_linear" x1="656.292" y1="191.052" x2="202.123" y2="-11.6975" gradientUnits="userSpaceOnUse"><stop offset="0.0354" stop-color="#FFA98C"></stop><stop offset="0.3169" stop-color="#FFB892"></stop><stop offset="0.8601" stop-color="#FEE1A3"></stop><stop offset="1" stop-color="#FEECA8"></stop></linearGradient><linearGradient id="paint12_linear" x1="286.107" y1="-8.06814" x2="132.079" y2="180.764" gradientUnits="userSpaceOnUse"><stop offset="0.1667" stop-color="#DC48C1"></stop><stop offset="0.4254" stop-color="#DF4AC2"></stop><stop offset="0.6003" stop-color="#E851C5"></stop><stop offset="0.7501" stop-color="#F75DCB"></stop><stop offset="0.8081" stop-color="#FF63CE"></stop><stop offset="0.9141" stop-color="#9F19AB"></stop></linearGradient><linearGradient id="paint13_linear" x1="511.008" y1="23.6569" x2="59.7898" y2="-177.775" gradientUnits="userSpaceOnUse"><stop offset="0.0354" stop-color="#9F19AB"></stop><stop offset="0.2438" stop-color="#AE25B1"></stop><stop offset="0.6455" stop-color="#D744BF"></stop><stop offset="1" stop-color="#FF63CE"></stop></linearGradient><linearGradient id="paint14_linear" x1="452.523" y1="18.6475" x2="252.473" y2="244.365" gradientUnits="userSpaceOnUse"><stop stop-color="#4EC1DE"></stop><stop offset="0.2391" stop-color="#4DC4DE"></stop><stop offset="0.4459" stop-color="#49CFDE"></stop><stop offset="0.6403" stop-color="#43E1DE"></stop><stop offset="0.6515" stop-color="#43E2DE"></stop><stop offset="0.7707" stop-color="#3DABC8"></stop><stop offset="0.8384" stop-color="#3A91BD"></stop><stop offset="0.8798" stop-color="#3B96BF"></stop><stop offset="1" stop-color="#3CA0C3"></stop></linearGradient><linearGradient id="paint15_linear" x1="693.91" y1="43.5924" x2="72.7978" y2="-51.6269" gradientUnits="userSpaceOnUse"><stop offset="0.0354" stop-color="#138BBD"></stop><stop offset="0.2257" stop-color="#169AC7"></stop><stop offset="0.5946" stop-color="#1FC3DF"></stop><stop offset="1" stop-color="#2AF6FF"></stop></linearGradient></defs></svg>